<?xml version="1.0" encoding="UTF-8"?>
<svg xmlns="http://www.w3.org/2000/svg" xmlns:xlink="http://www.w3.org/1999/xlink" width="24px" height="24px" viewBox="0 0 24 24" version="1.1">
<g id="surface1">
<path style=" stroke:none;fill-rule:nonzero;fill:rgb(0%,0%,0%);fill-opacity:1;" d="M 12 3.199219 C 11.519531 3.199219 11.359375 3.519531 11.039062 3.839844 L 1.761719 19.039062 C 1.601562 19.199219 1.601562 19.519531 1.601562 19.679688 C 1.601562 20.480469 2.238281 20.800781 2.71875 20.800781 L 21.28125 20.800781 C 21.921875 20.800781 22.398438 20.480469 22.398438 19.679688 C 22.398438 19.359375 22.398438 19.359375 22.238281 19.039062 L 13.121094 3.839844 C 12.800781 3.519531 12.480469 3.199219 12 3.199219 Z M 12 5.601562 L 17.28125 14.398438 L 16 14.398438 L 13.601562 12 L 12 14.398438 L 10.398438 12 L 8 14.398438 L 6.558594 14.398438 Z M 12 5.601562 "/>
</g>
</svg>
